<?xml version="1.0" encoding="UTF-8" standalone="no"?>
<svg
   xmlns:dc="http://purl.org/dc/elements/1.1/"
   xmlns:cc="http://creativecommons.org/ns#"
   xmlns:rdf="http://www.w3.org/1999/02/22-rdf-syntax-ns#"
   xmlns:svg="http://www.w3.org/2000/svg"
   xmlns="http://www.w3.org/2000/svg"
   xmlns:sodipodi="http://sodipodi.sourceforge.net/DTD/sodipodi-0.dtd"
   xmlns:inkscape="http://www.inkscape.org/namespaces/inkscape"
   width="800"
   height="800"
   viewBox="0 0 211.66666 211.66667"
   version="1.1"
   id="svg8"
   inkscape:version="1.0.2-2 (e86c870879, 2021-01-15)"
   sodipodi:docname="player1.svg">
  <defs
     id="defs2" />
  <sodipodi:namedview
     id="base"
     pagecolor="#000000"
     bordercolor="#666666"
     borderopacity="1.0"
     inkscape:pageopacity="0"
     inkscape:pageshadow="2"
     inkscape:zoom="0.98994949"
     inkscape:cx="740.14895"
     inkscape:cy="398.74053"
     inkscape:document-units="mm"
     inkscape:current-layer="layer1"
     inkscape:document-rotation="0"
     showgrid="false"
     units="px"
     inkscape:snap-bbox="true"
     inkscape:bbox-nodes="true"
     inkscape:bbox-paths="true"
     inkscape:snap-bbox-edge-midpoints="true"
     inkscape:snap-bbox-midpoints="true"
     inkscape:window-width="2560"
     inkscape:window-height="1369"
     inkscape:window-x="1072"
     inkscape:window-y="199"
     inkscape:window-maximized="1" />
  <metadata
     id="metadata5">
    <rdf:RDF>
      <cc:Work
         rdf:about="">
        <dc:format>image/svg+xml</dc:format>
        <dc:type
           rdf:resource="http://purl.org/dc/dcmitype/StillImage" />
        <dc:title></dc:title>
      </cc:Work>
    </rdf:RDF>
  </metadata>
  <g
     inkscape:label="Layer 1"
     inkscape:groupmode="layer"
     id="layer1">
    <g
       id="g860">
      <g
         id="g848">
        <path
           id="rect833"
           style="fill:#ffffff;stroke:#a1a1a1;stroke-width:0;stroke-linecap:round;stroke-linejoin:round;stroke-dashoffset:377.953"
           d="M 52.652096,28.063301 H 187.07788 c 13.6222,0 24.5888,10.966603 24.5888,24.588795 V 187.07788 c 0,13.6222 -10.9666,24.5888 -24.5888,24.5888 H 52.652096 c -13.622192,0 -24.588795,-10.9666 -24.588795,-24.5888 V 52.652096 c 0,-13.622192 10.966603,-24.588795 24.588795,-24.588795 z" />
        <path
           sodipodi:type="star"
           style="fill:#ff0000;stroke:#a1a1a1;stroke-width:0;stroke-linecap:round;stroke-linejoin:round;stroke-dashoffset:377.953"
           id="path844"
           sodipodi:sides="3"
           sodipodi:cx="18.407765"
           sodipodi:cy="119.85522"
           sodipodi:r1="19.277248"
           sodipodi:r2="9.6386242"
           sodipodi:arg1="1.0482108"
           sodipodi:arg2="2.0954084"
           inkscape:flatsided="false"
           inkscape:rounded="0"
           inkscape:randomized="0"
           d="m 28.029468,136.55956 -14.449471,-8.36194 -14.4494705,-8.36194 14.4663875,-8.33264 14.466386,-8.33263 -0.01692,16.69457 z"
           inkscape:transform-center-x="4.6330887"
           inkscape:transform-center-y="0.0060530758"
           transform="matrix(0.96304959,0,0,0.61977769,1.0369505,35.228421)" />
      </g>
      <circle
         style="fill:#000000;stroke:#a1a1a1;stroke-width:0;stroke-linecap:round;stroke-linejoin:round;stroke-dashoffset:377.953"
         id="path852"
         cx="69.490074"
         cy="70.158249"
         r="13.229842" />
    </g>
    <path
       style="fill:none;stroke:#000000;stroke-width:0.865;stroke-linecap:butt;stroke-linejoin:miter;stroke-opacity:1;stroke-miterlimit:4;stroke-dasharray:none"
       d="m 55.751489,122.84226 c 61.988091,68.98065 78.619041,61.61012 78.619041,61.61012 l -16.06398,-18.14286 c 0,0 -16.63096,-18.33184 0,0 16.63095,18.33185 25.89136,11.33929 25.89136,11.33929 L 130.59077,163.4747 c 0,0 -14.1741,-14.36309 0.18899,0 14.3631,14.3631 24.37946,7.37054 24.37946,7.37054 l -15.11904,-15.875 c 0,0 -14.93006,-16.06399 0,0 14.93006,16.06398 24.19047,7.74851 24.19047,7.74851 L 146.0878,144.57589 c 0,0 -18.89881,-18.14286 0,0 18.89881,18.14286 27.02529,10.20536 27.02529,10.20536 0,0 -1.23206,0.7254 -33.94323,-36.21502 -14.02551,-15.83888 -7.82314,-40.892123 -7.82314,-40.892123 v 0"
       id="path864"
       sodipodi:nodetypes="cccsccsccsccscscc" />
    <path
       style="fill:#ff0000;stroke:#ff0000;stroke-width:0.264583px;stroke-linecap:butt;stroke-linejoin:miter;stroke-opacity:1;fill-opacity:1"
       d="m 108.91233,28.063301 c 0,0 -15.238754,-15.421991 -9.287614,-19.4438587 4.309914,-2.9127037 5.518394,12.7849717 10.557144,11.4925897 5.0651,-1.299141 -1.4865,-15.1441927 3.74177,-15.2343629 5.16039,-0.088999 -0.79649,13.6442509 4.2095,14.9002759 4.98066,1.24967 6.56652,-14.1509606 10.69078,-11.091686 5.94216,4.407747 -10.82441,19.377042 -10.82441,19.377042"
       id="path866"
       sodipodi:nodetypes="csssssc" />
  </g>
</svg>
